HIERARCHY
ROOT Hips
{
	OFFSET 0.000000 88.474243 0.000000
	CHANNELS 6 Xposition Yposition Zposition Zrotation Yrotation Xrotation 
	JOINT Hips_Spine
	{
		OFFSET 0.000000 0.000000 0.000000
		CHANNELS 3 Zrotation Yrotation Xrotation
		JOINT Spine
		{
			OFFSET 0.005100 8.711998 -0.691000
			CHANNELS 3 Zrotation Yrotation Xrotation
			JOINT Spine1
			{
				OFFSET -0.009200 8.660301 -1.275000
				CHANNELS 3 Zrotation Yrotation Xrotation
				JOINT Spine2
				{
					OFFSET 0.006300 9.852501 -1.857000
					CHANNELS 3 Zrotation Yrotation Xrotation
					JOINT Spine2_Neck
					{
						OFFSET 0.000000 0.000000 0.000000
						CHANNELS 3 Zrotation Yrotation Xrotation
						JOINT Neck
						{
							OFFSET 0.016300 11.420799 -0.263300
							CHANNELS 3 Zrotation Yrotation Xrotation
							End Site #name: Head
							{
								OFFSET -0.019200 9.262405 2.362500
							}
						}
					}
					JOINT Spine2_LeftShoulder
					{
						OFFSET 0.000000 0.000000 0.000000
						CHANNELS 3 Zrotation Yrotation Xrotation
						JOINT LeftShoulder
						{
							OFFSET 5.616900 6.732201 -0.345700
							CHANNELS 3 Zrotation Yrotation Xrotation
							JOINT LeftArm
							{
								OFFSET 10.664888 -0.183372 -2.440700
								CHANNELS 3 Zrotation Yrotation Xrotation
								JOINT LeftForeArm
								{
									OFFSET 27.459126 0.000000 0.000000
									CHANNELS 3 Zrotation Yrotation Xrotation
									End Site #name: LeftHand
									{
										OFFSET 21.306858 0.000000 0.000000
									}
								}
							}
						}
					}
					JOINT Spine2_RightShoulder
					{
						OFFSET 0.000000 0.000000 0.000000
						CHANNELS 3 Zrotation Yrotation Xrotation
						JOINT RightShoulder
						{
							OFFSET -5.580300 6.737503 -0.344400
							CHANNELS 3 Zrotation Yrotation Xrotation
							JOINT RightArm
							{
								OFFSET -10.679335 -0.188484 -2.383900
								CHANNELS 3 Zrotation Yrotation Xrotation
								JOINT RightForeArm
								{
									OFFSET -27.503529 0.000000 0.000000
									CHANNELS 3 Zrotation Yrotation Xrotation
									End Site #name: RightHand
									{
										OFFSET -21.306808 0.000000 0.000000
									}
								}
							}
						}
					}
				}
			}
		}
	}
	JOINT Hips_LeftUpLeg
	{
		OFFSET 0.000000 0.000000 0.000000
		CHANNELS 3 Zrotation Yrotation Xrotation
		JOINT LeftUpLeg
		{
			OFFSET 6.857700 -6.739601 0.312100
			CHANNELS 3 Zrotation Yrotation Xrotation
			JOINT LeftLeg
			{
				OFFSET -0.367590 -34.731552 -4.572400
				CHANNELS 3 Zrotation Yrotation Xrotation
				End Site #name: LeftFoot
				{
					OFFSET 0.367590 -34.656704 -6.067400
				}
			}
		}
	}
	JOINT Hips_RightUpLeg
	{
		OFFSET 0.000000 0.000000 0.000000
		CHANNELS 3 Zrotation Yrotation Xrotation
		JOINT RightUpLeg
		{
			OFFSET -6.876100 -6.733299 0.301000
			CHANNELS 3 Zrotation Yrotation Xrotation
			JOINT RightLeg
			{
				OFFSET 0.347353 -34.795158 -4.515900
				CHANNELS 3 Zrotation Yrotation Xrotation
				End Site #name: RightFoot
				{
					OFFSET -0.347353 -34.589367 -6.070300
				}
			}
		}
	}
}
MOTION
Frames: 10
Frame Time: 0.041667
-1.050927 1.865104 0.345280 8.771758 47.713361 -16.879427 0.000000 -0.000000 0.000000 -7.853693 4.834492 -26.343727 5.791632 -8.667448 -5.879285 0.000000 0.000000 0.000000 3.892929 -0.718303 0.749000 -13.742703 -1.836156 -7.074384 14.180208 2.626165 -7.374800 -54.982571 -31.226160 7.379453 -156.782196 46.408544 -115.893698 -179.638148 -31.600420 177.076920 5.581245 3.061958 -4.055830 9.644467 5.446208 6.073268 165.092974 69.320296 38.515296 0.612554 28.399518 4.315654 0.000000 -0.000000 0.000000 40.807912 6.180934 36.180397 58.756661 27.133085 108.494393 -0.000000 -0.000000 0.000000 81.996956 8.665789 -4.053638 -14.703556 7.400327 -81.092929 
-2.609085 4.357650 0.335498 14.458460 42.754328 -16.819813 0.000000 -0.000000 0.000000 -1.341319 8.759621 -51.108313 3.739590 -6.288424 7.000801 0.000000 0.000000 0.000000 -2.073175 1.794933 2.379401 -26.893051 5.388989 -10.062753 16.201899 0.656427 -8.410686 -81.259411 -34.113813 16.012703 -155.695999 44.565360 -120.110667 175.532736 -30.530075 178.639204 6.685693 1.648052 -12.356584 19.878593 17.799731 -0.739828 -79.012970 88.946482 151.278706 -3.776722 72.611717 -1.707420 0.000000 -0.000000 0.000000 38.400887 -9.630726 39.330498 59.353007 22.312089 127.057786 -0.000000 -0.000000 0.000000 72.557914 0.366699 -26.417218 -18.750371 3.662649 -80.730979 
-4.537425 6.771643 0.440346 14.409237 49.044090 -17.239811 0.000000 -0.000000 0.000000 2.742051 10.955889 -56.689272 2.843715 -5.107149 11.649452 0.000000 0.000000 0.000000 -3.737066 3.861956 11.330503 -33.425288 12.206137 -5.855487 15.688914 0.154947 -9.677217 -92.166262 -30.958274 16.041188 -150.340796 45.339332 -116.498249 175.812894 -25.219634 179.153485 6.947261 1.909182 -10.750412 32.523537 4.428495 -9.548589 24.660785 70.942613 -116.953843 -173.247648 56.306141 -174.713726 0.000000 -0.000000 0.000000 31.852797 -13.911639 38.260004 72.890766 25.910442 124.960941 -0.000000 -0.000000 0.000000 67.697566 6.701795 -33.812919 -20.613164 7.247390 -75.610463 
-6.686840 9.384335 0.671343 14.001624 56.022037 -17.136464 0.000000 -0.000000 0.000000 4.597931 13.497763 -57.747054 1.665138 -5.477296 10.986347 0.000000 0.000000 0.000000 -4.858114 4.029771 12.738973 -39.452045 15.406050 -1.978141 14.047495 -1.768370 -9.619272 -97.657682 -28.297195 15.082048 -148.778817 48.270016 -117.827659 176.547900 -23.545519 178.844530 6.031801 0.628092 -11.292618 35.618214 1.163531 -11.766650 35.780582 58.682786 -119.610289 -174.740618 35.808864 -176.297395 -0.000000 -0.000000 0.000000 29.280456 -17.791442 39.146707 75.116708 28.771929 122.431548 -0.000000 -0.000000 0.000000 67.155179 6.916261 -36.367420 -20.697295 7.034558 -72.814713 
-8.988754 12.120800 1.090336 12.934123 63.325849 -17.509990 0.000000 -0.000000 0.000000 6.448447 15.101465 -55.635399 0.745921 -6.265906 9.402531 0.000000 0.000000 0.000000 -5.355405 3.012677 11.675545 -46.229268 15.773274 -2.561342 12.757536 -3.096648 -9.130760 -99.172708 -26.241327 14.595322 -149.235971 50.135104 -120.114602 176.974394 -25.160808 178.598814 4.015846 -1.189305 -11.052323 38.245399 -0.985955 -13.869436 38.816126 54.323687 -125.877457 -176.598101 21.925895 -177.385830 -0.000000 -0.000000 0.000000 30.015825 -19.053248 38.257259 74.919317 29.480568 121.684524 -0.000000 -0.000000 0.000000 67.317618 6.442459 -37.706645 -21.481266 8.196868 -70.440595 
-11.395588 14.969560 1.633622 11.985555 68.599839 -17.919418 0.000000 -0.000000 0.000000 7.434353 15.115273 -52.786674 0.017271 -7.515057 7.717112 0.000000 0.000000 0.000000 -5.780518 2.051356 10.521107 -51.874366 16.904086 -3.212644 11.446608 -3.816274 -8.588117 -99.360885 -25.281449 13.840561 -151.693490 51.078817 -122.609980 177.005293 -27.010463 178.491722 2.559996 -2.677073 -10.466200 42.193910 -2.701536 -15.514766 40.520328 50.958613 -129.996241 -177.699225 21.065059 -177.313131 -0.000000 -0.000000 0.000000 31.901195 -20.245771 35.076211 74.368235 30.177869 120.696423 -0.000000 -0.000000 0.000000 68.155913 5.751703 -37.589098 -22.319143 9.156105 -68.343805 
-13.854849 17.926529 2.267783 10.902909 72.457677 -18.601547 0.000000 -0.000000 0.000000 7.926377 14.684036 -50.199544 -0.451745 -9.153938 6.062379 0.000000 0.000000 0.000000 -5.913447 0.973488 9.604648 -54.947209 19.122759 -2.862087 9.583174 -4.310070 -7.927613 -99.150417 -24.587319 12.857981 -154.959639 51.404984 -124.765295 176.916992 -27.670823 178.454236 1.083755 -3.910835 -9.473407 46.295083 -4.845497 -17.209892 42.474262 47.715127 -131.736658 -178.046469 23.247780 -177.332842 -0.000000 -0.000000 0.000000 34.921736 -21.217072 31.861966 72.727761 30.737101 119.135027 -0.000000 -0.000000 0.000000 68.936090 5.334077 -37.104440 -22.920658 10.137356 -67.564951 
-16.321930 20.868256 2.976498 10.005680 75.639833 -19.160694 0.000000 -0.000000 0.000000 8.063370 14.158873 -48.025212 -0.652190 -11.248261 4.080436 0.000000 0.000000 0.000000 -6.034916 -0.068834 8.667725 -57.043378 20.710849 -2.650498 7.965247 -4.658274 -7.345091 -98.945974 -24.203353 12.093348 -157.555611 51.674724 -126.308470 176.818903 -28.418576 178.392383 -0.209250 -4.743233 -8.549176 49.846610 -5.823537 -18.210271 43.485979 45.949149 -132.633615 -178.378924 25.676429 -177.264615 -0.000000 -0.000000 0.000000 37.605629 -21.907134 29.093856 70.063288 30.963658 117.212525 -0.000000 -0.000000 0.000000 70.504251 5.680137 -35.598842 -23.246817 11.172998 -66.391020 
-18.749157 23.749708 3.701317 9.089092 78.753166 -19.550430 0.000000 -0.000000 0.000000 8.260369 13.952754 -45.847571 -0.735160 -13.232513 2.531962 0.000000 0.000000 0.000000 -6.184018 -0.889787 7.773913 -59.493654 21.359193 -3.217925 6.415482 -4.785173 -7.009387 -98.623813 -23.493799 10.971846 -158.883014 51.869119 -127.100804 176.776249 -29.554533 178.304878 -1.419134 -5.624552 -7.669335 51.697621 -4.900208 -17.621621 44.096054 45.417155 -132.865620 -178.771684 27.205678 -177.185281 -0.000000 -0.000000 0.000000 39.735577 -22.036580 26.373595 66.728800 30.581734 115.220660 -0.000000 -0.000000 0.000000 71.894850 6.922990 -34.559765 -23.277243 12.112770 -64.127618 
-21.131554 26.537941 4.439010 8.093029 81.603287 -19.934215 0.000000 -0.000000 0.000000 8.314713 13.748760 -43.974132 -0.764674 -14.723743 1.254050 0.000000 0.000000 0.000000 -6.409146 -1.700702 7.039231 -62.179549 21.021244 -4.918761 4.987181 -4.811001 -6.624975 -98.237874 -22.750246 9.834467 -159.836945 51.898191 -127.735506 176.772843 -30.792934 178.192477 -2.556667 -6.361191 -6.971015 52.547315 -3.900780 -16.951615 44.316721 45.523869 -132.976462 -179.044791 27.780553 -177.179942 -0.000000 -0.000000 0.000000 41.456383 -21.614778 23.665396 63.142294 29.441945 113.509316 -0.000000 -0.000000 0.000000 72.636993 8.979697 -34.347115 -23.133861 13.217673 -61.497088 
